<?xml version="1.0" standalone="no"?>
<!DOCTYPE svg PUBLIC "-//W3C//DTD SVG 20010904//EN"
 "http://www.w3.org/TR/2001/REC-SVG-20010904/DTD/svg10.dtd">
<svg version="1.0" xmlns="http://www.w3.org/2000/svg"
 width="313.000000pt" height="313.000000pt" viewBox="0 0 313.000000 313.000000"
 preserveAspectRatio="xMidYMid meet">

<g transform="translate(0.000000,313.000000) scale(0.100000,-0.100000)"
fill="#000000" stroke="none">
<path d="M1526 2823 c-154 -316 -297 -701 -357 -963 -17 -74 -32 -137 -35
-139 -7 -7 -178 154 -252 239 -147 168 -220 309 -243 471 -10 71 -10 99 4 179
9 52 14 96 12 99 -3 2 -21 -32 -41 -75 -42 -90 -72 -200 -80 -294 -13 -136 46
-307 157 -455 63 -85 226 -246 337 -335 l82 -65 0 -180 c0 -167 21 -439 34
-453 3 -3 6 64 6 149 0 165 17 398 31 413 5 6 24 -2 46 -18 170 -123 317 -217
332 -213 10 2 93 57 185 122 95 66 171 114 176 109 14 -15 32 -289 28 -447 -2
-81 -1 -147 3 -147 13 0 33 224 38 436 l6 230 121 102 c221 184 356 351 416
514 27 75 30 95 31 198 0 96 -4 129 -27 203 -41 136 -120 280 -85 156 16 -60
17 -232 0 -299 -19 -78 -91 -223 -152 -305 -53 -71 -311 -335 -327 -335 -5 0
-21 57 -36 128 -48 222 -165 546 -324 897 -27 60 -54 111 -59 112 -5 2 -17
-14 -27 -34z m100 -433 c101 -236 171 -435 234 -665 l22 -79 -37 -31 c-21 -16
-95 -71 -164 -122 l-126 -91 -28 16 c-28 17 -283 204 -299 220 -17 17 84 343
184 597 66 167 136 320 143 314 2 -3 34 -74 71 -159z"/>
<path d="M1260 2641 c-86 -23 -166 -54 -243 -92 -120 -61 -277 -179 -277 -208
0 -25 69 -163 79 -159 5 2 35 26 66 53 84 74 226 160 314 192 l78 27 42 96
c22 53 41 99 41 103 0 11 -29 7 -100 -12z"/>
<path d="M1743 2646 c42 -109 83 -189 101 -196 12 -5 55 -23 97 -40 89 -36
201 -107 283 -181 56 -51 59 -52 73 -33 21 28 63 124 63 144 0 34 -158 152
-288 215 -77 38 -227 89 -291 100 -38 6 -43 5 -38 -9z"/>
<path d="M493 2018 c-6 -7 -24 -49 -41 -93 -109 -287 -106 -589 9 -875 33 -82
77 -131 136 -151 44 -14 51 -7 64 69 11 59 10 65 -21 139 -52 124 -71 207 -77
341 -6 131 5 232 38 339 l19 62 -43 68 c-25 37 -48 78 -51 91 -8 25 -19 28
-33 10z"/>
<path d="M2538 1938 c-49 -83 -54 -96 -46 -123 33 -106 40 -144 45 -262 4 -86
1 -160 -7 -210 -12 -78 -50 -204 -76 -255 -16 -31 -19 -135 -4 -173 9 -23 14
-26 38 -20 15 3 46 19 70 33 43 28 70 77 117 216 63 190 71 442 20 642 -20 76
-84 244 -94 244 -4 0 -32 -42 -63 -92z"/>
<path d="M690 1558 c0 -2 10 -70 21 -153 27 -190 36 -439 19 -501 -14 -51 -59
-94 -96 -94 -37 0 -129 47 -190 96 -30 24 -56 44 -59 44 -14 0 -2 -44 30 -106
71 -143 221 -300 390 -409 146 -95 241 -132 360 -142 l70 -5 -35 28 c-77 60
-196 191 -226 249 -63 120 -68 153 -65 427 2 267 -2 294 -53 397 -26 50 -136
171 -156 171 -5 0 -10 -1 -10 -2z"/>
<path d="M2370 1535 c-51 -38 -110 -113 -144 -185 l-31 -65 0 -265 c-1 -184
-5 -282 -14 -320 -34 -141 -116 -253 -281 -382 l-35 -28 46 0 c199 0 499 180
681 409 75 93 156 251 129 251 -4 0 -34 -21 -67 -46 -67 -53 -147 -94 -184
-94 -33 0 -66 23 -88 63 -26 49 -23 324 7 525 12 85 21 156 18 158 -2 2 -19
-7 -37 -21z"/>
<path d="M1020 653 c0 -18 37 -85 68 -122 84 -103 175 -172 252 -192 73 -18
346 -18 420 0 61 15 137 66 213 144 45 47 107 140 107 163 0 5 -39 -9 -87 -33
-49 -23 -128 -55 -178 -70 -83 -25 -103 -27 -265 -27 -161 1 -182 3 -265 28
-49 15 -129 46 -177 70 -49 24 -88 41 -88 39z"/>
</g>
</svg>
